<svg xmlns="http://www.w3.org/2000/svg" width="256" height="256" viewBox="0 0 100 100"><path d="M28.54 14.63L28.54 14.63Q28.99 14.45 29.93 14.23Q30.88 14.00 31.87 14.00L31.87 14.00Q35.83 14.00 35.83 17.33L35.83 17.33L35.83 55.85Q35.83 59.90 34.66 62.65Q33.48 65.39 31.46 67.06Q29.44 68.72 26.78 69.44Q24.13 70.16 21.25 70.16L21.25 70.16Q16.12 70.16 13.78 68.95Q11.44 67.73 11.44 65.75L11.44 65.75Q11.44 64.49 11.98 63.59Q12.52 62.69 12.97 62.24L12.97 62.24Q14.32 62.87 16.21 63.41Q18.10 63.95 20.17 63.95L20.17 63.95Q24.22 63.95 26.38 62.02Q28.54 60.08 28.54 55.49L28.54 55.49L28.54 14.63ZM68.31 70.34L68.31 70.34Q65.16 70.34 62.38 69.62Q59.59 68.90 57.78 67.91L57.78 67.91L57.78 85.37Q57.34 85.55 56.44 85.78Q55.53 86 54.45 86L54.45 86Q50.59 86 50.59 82.67L50.59 82.67L50.59 35.15Q50.59 33.35 51.22 32.27Q51.84 31.19 53.83 30.02L53.83 30.02Q56.26 28.67 59.63 27.55Q63.00 26.42 67.33 26.42L67.33 26.42Q71.73 26.42 75.65 27.68Q79.56 28.94 82.40 31.60Q85.23 34.25 86.90 38.39Q88.56 42.53 88.56 48.29L88.56 48.29Q88.56 53.87 87.08 58.01Q85.59 62.15 82.89 64.89Q80.19 67.64 76.46 68.99Q72.72 70.34 68.31 70.34ZM67.33 64.40L67.33 64.40Q73.63 64.40 77.45 60.58Q81.28 56.75 81.28 48.29L81.28 48.29Q81.28 43.88 80.15 40.82Q79.03 37.76 77.09 35.87Q75.16 33.98 72.63 33.17Q70.11 32.36 67.33 32.36L67.33 32.36Q64.09 32.36 61.84 33.17Q59.59 33.98 57.78 34.97L57.78 34.97L57.78 61.52Q59.50 62.78 61.84 63.59Q64.17 64.40 67.33 64.40Z" fill="#ffff00"></path></svg>